<svg width="6274" height="985" viewBox="0 0 6274 985" fill="none" xmlns="http://www.w3.org/2000/svg">
<path d="M241.426 243.501C229.92 255.546 218.325 267.508 206.926 279.654C178.857 309.561 178.844 316.566 207.46 345.216C322.848 460.742 438.36 576.145 553.602 691.817C560.122 698.362 570.608 703.014 569.565 715.193C560.016 721.5 549.73 718.477 540.085 718.488C375.991 718.669 211.897 718.552 47.8028 718.522C13.2508 718.516 7.20775 724.338 5.37105 758.745C3.28299 797.858 2.50872 836.951 5.30237 876.08C7.77016 910.646 12.7488 916.478 47.7988 916.605C162.751 917.021 277.707 916.992 392.66 916.695C448.691 916.551 495.84 896.513 535.117 855.336C583.979 804.111 634.533 754.473 685.103 704.912C768.886 622.798 872.371 623.563 954.797 706.152C1005.41 756.861 1056.2 807.389 1106.55 858.359C1142.1 894.35 1184.64 916.061 1235.21 916.578C1357.64 917.829 1480.1 917.039 1602.55 917.513C1622.12 917.589 1631.29 909.818 1632.56 889.902C1635.36 845.8 1637.31 801.767 1633.25 757.654C1630.01 722.463 1625.44 718.314 1589.97 718.344C1426.71 718.48 1263.45 718.661 1100.18 718.513C1089.91 718.504 1078.7 721.778 1068.84 714.105C1070.26 701.616 1080.67 696.18 1087.92 688.918C1204.39 572.12 1321.14 455.6 1437.71 338.904C1459.41 317.19 1458.52 309.833 1438.88 286.611C1412.99 256.006 1384.24 228.527 1354.25 202.08C1326.4 177.509 1320.77 177.135 1294.49 203.392C1177.81 319.978 1061.24 436.683 944.373 553.083C938.005 559.425 933.49 570.544 920.964 567.744C916.33 559.422 918.688 550.952 918.676 542.82C918.435 376.22 918.019 209.619 918.55 43.0205C918.629 18.1007 910.087 6.50921 884.48 4.89196C846.995 2.52453 809.615 2.02583 772.144 3.70335C723.404 5.88539 720.116 9.10863 720.078 57.9294C719.952 218.692 720.03 379.455 719.671 540.216C719.65 549.488 723.587 560.15 711.896 571.11C686.629 545.843 661.572 520.778 636.506 495.721C538.703 397.954 440.957 300.129 343.05 202.466C318.977 178.454 309.844 178.605 284.791 202.1C271.424 214.637 258.218 227.346 241.426 243.501Z" fill="#F87631"/>
<rect x="685" y="720" width="265" height="265" rx="132.5" fill="#222222"/>
<path d="M2233.37 881H2149.91V301.436H2225.25V397.643H2231.05C2249.6 344.323 2305.23 296.799 2389.85 296.799C2508.08 296.799 2553.29 381.416 2553.29 479.941V512.397H2469.83V492.692C2469.83 403.439 2442.01 368.665 2359.71 368.665C2270.46 368.665 2233.37 409.235 2233.37 501.965V881ZM2882.36 892.591C2706.18 892.591 2614.6 768.565 2614.6 594.695C2614.6 420.826 2717.77 296.799 2881.2 296.799C3019.14 296.799 3132.73 380.256 3132.73 549.489C3132.73 576.149 3130.42 601.65 3126.94 617.878H2693.42C2696.9 744.223 2746.74 818.407 2883.52 818.407C2999.43 818.407 3045.8 766.246 3045.8 696.699V689.744H3128.1V697.858C3128.1 807.975 3028.41 892.591 2882.36 892.591ZM2878.89 368.665C2751.38 368.665 2700.38 441.69 2693.42 557.603H3053.91C3058.55 421.985 2991.32 368.665 2878.89 368.665Z" fill="black"/>
<path d="M3655.98 881H3490.23L3195.81 104.384H3336.06L3570.21 741.905H3579.48L3811.3 104.384H3950.4L3655.98 881ZM4126.71 231.888H4002.69L4001.53 104.384H4126.71V231.888ZM4127.87 881H4002.69V301.436H4127.87V881ZM4481.69 892.591C4313.62 892.591 4225.52 826.521 4225.52 686.266V683.948H4346.07V704.812C4346.07 767.405 4373.89 790.588 4484.01 790.588C4576.74 790.588 4594.12 769.724 4594.12 726.836C4594.12 680.471 4566.31 666.561 4481.69 651.493L4392.44 636.424C4289.27 617.878 4224.36 571.513 4224.36 467.191C4224.36 362.869 4310.14 293.322 4460.82 293.322C4596.44 293.322 4698.45 360.551 4698.45 491.533V501.965H4579.06V488.055C4579.06 434.735 4560.51 396.484 4457.35 396.484C4365.78 396.484 4343.75 420.826 4343.75 464.873C4343.75 508.92 4364.62 521.67 4445.76 537.898L4543.12 556.444C4654.4 578.467 4712.36 628.31 4712.36 723.358C4712.36 829.998 4627.74 892.591 4481.69 892.591ZM4927.01 231.888H4802.98L4801.83 104.384H4927.01V231.888ZM4928.17 881H4802.98V301.436H4928.17V881ZM5301.75 892.591C5124.4 892.591 5014.28 772.042 5014.28 592.377C5014.28 413.871 5124.4 293.322 5301.75 293.322C5477.93 293.322 5584.57 413.871 5584.57 592.377C5584.57 772.042 5477.93 892.591 5301.75 892.591ZM5301.75 781.315C5422.29 781.315 5464.02 722.199 5464.02 592.377C5464.02 463.714 5422.29 404.598 5301.75 404.598C5180.04 404.598 5137.15 463.714 5137.15 592.377C5137.15 722.199 5180.04 781.315 5301.75 781.315ZM5803.34 881H5678.15V304.913H5792.91V412.712H5797.54C5824.2 351.278 5885.64 293.322 5998.07 293.322C6147.6 293.322 6214.83 388.37 6214.83 519.352V881H6089.64V547.171C6089.64 444.008 6057.19 401.121 5951.71 401.121C5849.71 401.121 5803.34 440.531 5803.34 548.33V881Z" fill="#F87631"/>
</svg>
